
        <svg xmlns="http://www.w3.org/2000/svg" xmlns:xlink="http://www.w3.org/1999/xlink" version="1.1" width="3200" height="2378.400319992572" viewBox="0 0 3200 2378.400319992572">
			
			<g transform="scale(10) translate(10, 10)">
				<defs id="SvgjsDefs1193"/><g id="SvgjsG1194" featureKey="e7LhAk-0" transform="matrix(1.7994429458849166,0,0,1.7994429458849166,68.30903028707178,-7.007766268736876)" fill="#000"><g xmlns="http://www.w3.org/2000/svg"><path d="M6,13.1c0.2,0,0.4,0.1,0.5,0.1c0.4,8.7,1,17.3,1,26c0,4.6-0.1,9.2-0.4,13.8C7,58,6.1,63,5.7,68.1c-0.1,1.5,1.3,2.6,2.7,2.7   c6.3,0.5,12.5,2.1,18.2,4.8c2.5,1.2,4.9,2.5,7.2,4c2.4,1.6,4.7,3.8,7.3,5c2.1,1,4.2,0.6,6.3-0.3c3.4-1.5,6.7-3.3,10-5   c6.1-3.1,12.2-6.2,18.3-9.3c2.3-1.2,5.2-2.2,7.1-4.1c2.1-2.1,2.1-5.1,2.2-7.8c0.3-7,0.6-14,0.9-21c0.3-7,0.6-14,1-21   c0.2-4.1,1.1-11.1-4.4-12.1c-3-0.6-6.3,1.5-9,2.7C70.3,8,67,9.5,63.7,11c-6.4,3.1-12.7,6.5-18.8,10.1C33.3,14.5,20.8,9.7,7.7,7   C3.7,6.2,2,12.4,6,13.1z M46.5,27.1c9.6-5.8,19.7-11.1,30-15.5c1.1-0.5,2.5-1.4,3.7-1.5c1.4-0.2,1.1-0.5,1.2,0.9   c0.3,2.9-0.2,6-0.3,8.9c-0.2,5.7-0.5,11.5-0.7,17.2c-0.2,5.9-0.5,11.9-0.8,17.8c-0.1,2.6,0.4,6.1-1.8,7.7c-2.3,1.6-5.3,2.7-7.8,3.9   c-5.4,2.7-10.7,5.4-16.1,8.1c-2.5,1.3-5,2.5-7.4,3.8c-0.4,0.2-0.8,0.4-1.1,0.6c0-0.1,0-0.1,0-0.2c0.4-2.5,0-5.3,0-7.8   c0-3.2,0-6.4,0-9.6c-0.1-11.3,0.1-22.6-0.7-33.9C45.3,27.5,45.9,27.4,46.5,27.1z M42.7,26.6c-0.5,8.6-0.4,17.2-0.6,25.7   c-0.1,4.5-0.2,9-0.3,13.5c-0.1,2.1-0.1,4.3-0.2,6.4c0,1.3,0,2.6-0.1,3.8c-0.1,0.5-0.1,1-0.2,1.5c-0.1,0.1-0.1,0.2-0.1,0.3   c-0.6-0.5-1.1-0.9-1.7-1.3c-8.4-5.9-18.1-9.6-28.2-10.9c0.6-9,0.3-18.2,0.1-27.1c-0.2-8.2-0.6-16.5-1.7-24.7   C21.2,16.4,32.3,20.7,42.7,26.6z"/><path d="M50.4,39.2c4.5-1.1,8.8-3.2,13.1-4.9c4.1-1.6,8.3-3.1,12.2-5c1.8-0.8,0.5-3.9-1.4-3.2c-4.1,1.6-8.1,3.5-12.1,5.3   c-4.2,1.9-8.7,3.6-12.6,6C48.7,38,49.3,39.5,50.4,39.2z"/><path d="M48.6,50.9c6.2-2.1,12.6-4.5,18.4-7.5c1.4-0.7,0.4-3-1.1-2.5c-6.1,2.2-12.3,5.3-18,8.4C47,49.7,47.6,51.2,48.6,50.9z"/><path d="M70.9,51.6c-4.7,1.5-9.2,4.7-13.3,7.4c-2.5,1.6-5.5,3.4-7.5,5.4c-0.5,0.5-0.1,1.1,0.5,1.2c0.8,0.1,1.6-0.5,2.3-0.9   c1.8-1,3.6-2.1,5.3-3.2c4.5-2.7,9.2-5,13.9-7.3C73.5,53.5,72.5,51.1,70.9,51.6z"/><path d="M19.4,27.8c6.8,0.5,12.7,3,18.4,6.7c2,1.3,4-2.1,1.9-3.3c-6-3.4-13.5-6.8-20.6-5.4C18,26,18.4,27.7,19.4,27.8z"/><path d="M24.6,36.8c-1.4-0.2-2,1.9-0.6,2.2c3.9,0.7,7.4,2.2,10.8,4.3c1.5,1,2.9-1.5,1.4-2.4C32.6,38.8,28.7,37.4,24.6,36.8z"/><path d="M16.5,52.6c3.4,1.5,6.9,2.9,10.3,4.7c3.4,1.7,6.3,4.1,9.5,6c1.6,1,3.5-1.4,2.1-2.7c-5.7-5.2-13.8-7.8-21-10   C16.2,50.3,15.4,52.1,16.5,52.6z"/></g></g><g id="SvgjsG1195" featureKey="Qg0WB5-0" transform="matrix(2.73273823406688,0,0,2.73273823406688,-3.8804885008663508,152.5275892475157)" fill="#000"><path d="M1.42 5.609999999999999 q0 -0.21 0.11 -0.335 t0.33 -0.125 l6.39 0 q0.69 0 1.3 0.19 t1.12 0.525 t0.92 0.8 t0.695 1.005 t0.435 1.135 t0.15 1.205 q0 0.9 -0.325 1.76 t-0.925 1.53 t-1.44 1.085 t-1.86 0.425 l-3.03 0 l0 4.76 q0 0.43 -0.46 0.43 l-2.97 0 q-0.2 0 -0.32 -0.105 t-0.12 -0.325 l0 -13.96 z M8.95 9.99 q0 -0.3 -0.105 -0.6 t-0.305 -0.535 t-0.485 -0.385 t-0.645 -0.15 l-2.12 0 l0 3.34 l2.12 0 q0.36 0 0.65 -0.145 t0.485 -0.375 t0.3 -0.53 t0.105 -0.62 z M27.38 19.26 q0 0.17 -0.06 0.325 t-0.2 0.245 q-0.11 0.11 -0.26 0.14 t-0.26 0.03 l-1.97 0 q-0.21 0 -0.34 -0.055 t-0.21 -0.155 t-0.135 -0.245 t-0.115 -0.315 l-0.29 -0.75 q-0.27 0.27 -0.59 0.575 t-0.705 0.565 t-0.835 0.435 t-0.96 0.175 q-0.91 0 -1.745 -0.23 t-1.56 -0.655 t-1.315 -1.02 t-1.015 -1.325 t-0.655 -1.575 t-0.23 -1.765 q0 -1.39 0.51 -2.585 t1.39 -2.08 t2.07 -1.39 t2.55 -0.505 q0.62 0 1.14 0.185 t0.945 0.485 t0.77 0.68 t0.615 0.77 l0.39 -1.21 q0.1 -0.25 0.165 -0.405 t0.14 -0.23 t0.185 -0.1 t0.31 -0.025 l1.49 0 q0.11 0 0.26 0.03 t0.26 0.14 q0.14 0.11 0.2 0.25 t0.06 0.32 l0 11.27 z M17.53 13.66 q0 0.66 0.205 1.235 t0.585 0.995 t0.915 0.665 t1.185 0.245 q0.67 0 1.245 -0.245 t1 -0.665 t0.665 -0.995 t0.24 -1.235 q0 -0.64 -0.24 -1.22 t-0.665 -1.02 t-1 -0.695 t-1.245 -0.255 q-0.65 0 -1.185 0.255 t-0.915 0.695 t-0.585 1.02 t-0.205 1.22 z M30.04 7.42 q0.13 -0.11 0.27 -0.14 t0.27 -0.03 l1.51 0 q0.19 0 0.315 0.06 t0.205 0.165 t0.135 0.24 t0.105 0.295 l0.42 1.21 q0.28 -0.36 0.565 -0.735 t0.675 -0.68 t0.93 -0.505 t1.32 -0.2 q1.37 0 2.525 0.505 t1.99 1.39 t1.305 2.08 t0.47 2.585 q0 1.38 -0.47 2.58 t-1.305 2.085 t-1.99 1.395 t-2.525 0.51 q-0.65 0 -1.12 -0.155 t-0.835 -0.405 t-0.645 -0.55 t-0.55 -0.6 l0 4.66 q0 0.3 -0.18 0.51 t-0.56 0.21 l-2.29 0 q-0.12 0 -0.26 -0.05 t-0.26 -0.14 t-0.2 -0.225 t-0.08 -0.305 l0 -15.19 q0 -0.2 0.075 -0.33 t0.185 -0.24 z M39.379999999999995 13.66 q0 -0.64 -0.21 -1.215 t-0.59 -1.005 t-0.91 -0.68 t-1.17 -0.25 q-0.63 0 -1.195 0.235 t-0.99 0.64 t-0.69 0.955 t-0.295 1.17 l0 0.15 q0 0.66 0.25 1.24 t0.68 1.005 t1.01 0.675 t1.23 0.25 q0.64 0 1.17 -0.25 t0.91 -0.675 t0.59 -1.005 t0.21 -1.24 z M55.69 18.48 q-0.88 0.81 -1.98 1.265 t-2.33 0.455 q-1.37 0 -2.59 -0.5 t-2.14 -1.385 t-1.46 -2.085 t-0.54 -2.61 q0 -0.88 0.215 -1.705 t0.61 -1.545 t0.96 -1.325 t1.265 -1.035 t1.52 -0.67 t1.73 -0.24 q0.83 0 1.61 0.22 t1.465 0.62 t1.255 0.96 t0.98 1.225 t0.635 1.42 t0.225 1.555 q0 0.52 -0.015 0.85 t-0.155 0.525 t-0.465 0.27 t-0.955 0.075 l-7.2 0 q0.1 0.64 0.405 1.07 t0.705 0.685 t0.85 0.365 t0.85 0.11 q0.36 0 0.74 -0.075 t0.735 -0.2 t0.65 -0.29 t0.475 -0.345 q0.16 -0.13 0.275 -0.195 t0.245 -0.065 t0.265 0.09 t0.305 0.26 l1.06 1.2 q0.11 0.13 0.14 0.235 t0.03 0.215 q0 0.2 -0.11 0.345 t-0.26 0.255 z M50.879999999999995 10.15 q-0.39 0 -0.755 0.155 t-0.685 0.415 t-0.575 0.59 t-0.415 0.67 l5.11 0 q-0.21 -0.39 -0.455 -0.72 t-0.56 -0.58 t-0.72 -0.39 t-0.945 -0.14 z M59.209999999999994 8.04 q0 -0.17 0.075 -0.325 t0.185 -0.245 q0.26 -0.17 0.54 -0.17 l1.51 0 q0.19 0 0.3 0.07 t0.185 0.18 t0.13 0.25 t0.135 0.28 q0.02 0.04 0.08 0.195 t0.13 0.34 t0.135 0.35 t0.085 0.215 q0.3 -0.33 0.575 -0.695 t0.585 -0.675 t0.69 -0.51 t0.9 -0.2 q0.54 0 0.965 0.08 t0.805 0.235 t0.755 0.395 t0.815 0.56 q0.69 0.37 0.26 1.1 l-0.91 1.55 q-0.2 0.3 -0.49 0.37 t-0.63 -0.09 q-0.43 -0.42 -0.875 -0.625 t-1.015 -0.205 q-0.39 0 -0.685 0.11 t-0.535 0.31 t-0.45 0.48 t-0.42 0.62 l0 7.24 q0 0.38 -0.185 0.575 t-0.615 0.195 l-2.25 0 q-0.78 0 -0.78 -0.77 l0 -11.19 z M79.75 9.34 q-0.51 -0.36 -1.09 -0.56 t-1.24 -0.2 q-0.83 0 -1.52 0.315 t-1.185 0.855 t-0.775 1.265 t-0.28 1.545 t0.28 1.54 t0.775 1.255 t1.185 0.845 t1.52 0.31 q0.35 0 0.695 -0.05 t0.735 -0.13 l0 -2.62 q0 -0.19 0.11 -0.315 t0.33 -0.125 l2.72 0 q0.15 0 0.32 0.12 t0.17 0.32 l0 4.84 q0 0.27 -0.29 0.44 q-0.47 0.32 -1.04 0.55 t-1.19 0.38 t-1.255 0.225 t-1.235 0.075 q-1.06 0 -2.035 -0.27 t-1.825 -0.77 t-1.545 -1.195 t-1.195 -1.54 t-0.77 -1.82 t-0.27 -2.035 t0.27 -2.035 t0.77 -1.83 t1.195 -1.555 t1.545 -1.195 t1.825 -0.77 t2.035 -0.275 q1.2 0 2.265 0.335 t2.005 0.965 q0.17 0.1 0.26 0.265 t-0.04 0.375 l-1.62 2.34 q-0.13 0.16 -0.26 0.215 t-0.35 -0.085 z M95.63 18.48 q-0.88 0.81 -1.98 1.265 t-2.33 0.455 q-1.37 0 -2.59 -0.5 t-2.14 -1.385 t-1.46 -2.085 t-0.54 -2.61 q0 -0.88 0.215 -1.705 t0.61 -1.545 t0.96 -1.325 t1.265 -1.035 t1.52 -0.67 t1.73 -0.24 q0.83 0 1.61 0.22 t1.465 0.62 t1.255 0.96 t0.98 1.225 t0.635 1.42 t0.225 1.555 q0 0.52 -0.015 0.85 t-0.155 0.525 t-0.465 0.27 t-0.955 0.075 l-7.2 0 q0.1 0.64 0.405 1.07 t0.705 0.685 t0.85 0.365 t0.85 0.11 q0.36 0 0.74 -0.075 t0.735 -0.2 t0.65 -0.29 t0.475 -0.345 q0.16 -0.13 0.275 -0.195 t0.245 -0.065 t0.265 0.09 t0.305 0.26 l1.06 1.2 q0.11 0.13 0.14 0.235 t0.03 0.215 q0 0.2 -0.11 0.345 t-0.26 0.255 z M90.82 10.15 q-0.39 0 -0.755 0.155 t-0.685 0.415 t-0.575 0.59 t-0.415 0.67 l5.11 0 q-0.21 -0.39 -0.455 -0.72 t-0.56 -0.58 t-0.72 -0.39 t-0.945 -0.14 z M99.40999999999998 7.470000000000001 q0.13 -0.11 0.275 -0.14 t0.275 -0.03 l1.51 0 q0.18 0 0.31 0.065 t0.22 0.175 t0.145 0.25 t0.105 0.29 l0.31 1.28 q0.15 -0.31 0.435 -0.705 t0.725 -0.74 t1.045 -0.58 t1.405 -0.235 q1.14 0 2.07 0.44 t1.585 1.2 t1.015 1.775 t0.36 2.165 l0 6.55 q0 0.38 -0.165 0.575 t-0.525 0.195 l-2.31 0 q-0.43 0 -0.59 -0.145 t-0.16 -0.565 l0 -6.51 q0 -0.43 -0.195 -0.815 t-0.515 -0.68 t-0.725 -0.465 t-0.825 -0.17 q-0.36 0 -0.735 0.16 t-0.69 0.445 t-0.53 0.67 t-0.245 0.835 l0 6.5 q0 0.17 -0.065 0.34 t-0.195 0.26 q-0.13 0.08 -0.245 0.11 t-0.265 0.03 l-2.26 0 q-0.43 0 -0.62 -0.21 t-0.19 -0.56 l0 -11.19 q0 -0.19 0.085 -0.35 t0.235 -0.25 z"/></g>
			</g>
		</svg>
	